<?xml version="1.0" encoding="UTF-8"?>
<svg version="1.1" xmlns="http://www.w3.org/2000/svg" width="2000" height="676">
<path d="M0 0 C0.33 0.66 0.66 1.32 1 2 C0.37359619 2.31525635 -0.25280762 2.6305127 -0.89819336 2.95532227 C-45.29699181 25.40641536 -86.65630908 53.28609636 -123.05859375 87.28125 C-125.44460515 89.50320881 -127.88774189 91.64134187 -130.375 93.75 C-133.58320109 96.5246604 -136.29143198 99.54286036 -139.02734375 102.77734375 C-141.36588061 105.41224964 -143.85610264 107.84965599 -146.375 110.3125 C-150.81559044 114.68129737 -154.83460101 119.27136575 -158.71875 124.140625 C-161.28852733 127.36164727 -163.91871203 130.52723369 -166.5625 133.6875 C-167.41797669 134.71223296 -168.27344617 135.73697193 -169.12890625 136.76171875 C-169.74636719 137.50035156 -170.36382812 138.23898438 -171 139 C-163.8283647 133.45945865 -157.38805153 126.8836158 -151.5 120 C-142.95120137 110.07692642 -133.52691984 101.73795486 -123 94 C-122.43361816 93.5786377 -121.86723633 93.15727539 -121.28369141 92.72314453 C-81.47004318 63.46553962 -22.79401991 49.23870028 26 48 C26.76989258 47.97953613 27.53978516 47.95907227 28.33300781 47.93798828 C52.05785532 47.39491099 74.79830661 50.13824094 98 55 C99.21671387 55.25410645 100.43342773 55.50821289 101.68701172 55.77001953 C151.90390816 66.44430053 199.94940728 86.9521806 241.25048828 117.69921875 C243.17887845 119.1329981 245.11867732 120.55061048 247.05859375 121.96875 C254.74573957 127.62287985 262.01495513 133.48485815 269 140 C270.28686323 141.1304914 271.5783996 142.25568986 272.875 143.375 C283.40588911 152.56559413 293.85779167 161.97815081 302.953125 172.6171875 C304.54914793 174.47515313 306.16381297 176.30781689 307.796875 178.1328125 C333.83928755 207.42290534 354.97447536 241.15477507 370.875 276.9375 C371.33986816 277.98010986 371.80473633 279.02271973 372.28369141 280.09692383 C374.98910615 286.29580072 377.2368033 292.46893858 379 299 C376.25785516 296.56293339 374.7588683 293.96169272 373.06640625 290.72265625 C372.50598633 289.66151611 371.94556641 288.60037598 371.36816406 287.50708008 C370.77229492 286.37036865 370.17642578 285.23365723 369.5625 284.0625 C360.59188532 267.14300546 350.889373 250.75910388 340 235 C339.54157715 234.33436035 339.0831543 233.6687207 338.61083984 232.98291016 C325.90561116 214.59365023 312.33198741 197.03133265 297.265625 180.51171875 C296.00527239 179.11446577 294.75184588 177.71054855 293.52709961 176.28198242 C288.62409523 170.57410336 283.39366394 165.2446677 278.0625 159.9375 C277.20720703 159.07833984 276.35191406 158.21917969 275.47070312 157.33398438 C270.47589189 152.34679299 265.37329811 147.57516486 260 143 C258.82368707 141.97977938 257.64789091 140.95896255 256.47265625 139.9375 C250.11147954 134.44849383 243.72086793 129.04954098 237 124 C237.66386719 124.66257812 238.32773437 125.32515625 239.01171875 126.0078125 C241.25045106 128.24575736 243.47974745 130.49285138 245.70703125 132.7421875 C247.0754682 134.11984395 248.44395897 135.49744694 249.8125 136.875 C250.48603516 137.55691406 251.15957031 138.23882812 251.85351562 138.94140625 C255.19102597 142.29488555 258.56586632 145.5410336 262.1484375 148.6328125 C272.6523659 157.69930713 281.24014255 168.54838589 289 180 C289.5892627 180.86866699 289.5892627 180.86866699 290.19042969 181.75488281 C314.15033819 217.7662372 325.48881783 267.40843594 330 310 C330.08040527 310.74878418 330.16081055 311.49756836 330.24365234 312.26904297 C331.930392 329.00422479 331.13498253 345.96375575 329.75 362.6875 C329.68342194 363.50905579 329.61684387 364.33061157 329.54824829 365.17706299 C326.36154024 404.00805575 316.63798667 440.31693091 300.46630859 475.75537109 C298.96355274 479.08065003 297.50219659 482.42154874 296.05078125 485.76953125 C291.21760275 496.88679164 286.2167801 507.86597652 280.625 518.625 C280.1494165 519.5423291 279.67383301 520.4596582 279.18383789 521.40478516 C274.4187477 530.40449165 269.15589894 538.24443641 262.0625 545.5625 C260.81683854 546.87156872 259.57203541 548.18145478 258.328125 549.4921875 C257.74482422 550.10416992 257.16152344 550.71615234 256.56054688 551.34667969 C254.76161741 553.25255427 253.02349038 555.20241893 251.3125 557.1875 C246.66650612 562.57262927 241.84516967 567.79462092 237 573 C236.34257813 573.71285156 235.68515625 574.42570313 235.0078125 575.16015625 C226.41708836 584.13801603 216.46653723 591.33723014 205.74121094 597.52416992 C198.77409743 601.60084381 192.48919175 606.50905935 186.08886719 611.40869141 C172.89522813 621.45966608 159.24961177 630.51658368 145 639 C144.16662109 639.49854492 143.33324219 639.99708984 142.47460938 640.51074219 C123.62315081 651.72551185 103.9930074 661.69750781 83.875 670.4375 C82.9984375 670.82123779 82.121875 671.20497559 81.21875 671.6003418 C80.02378906 672.10561401 80.02378906 672.10561401 78.8046875 672.62109375 C78.11358887 672.9142749 77.42249023 673.20745605 76.71044922 673.50952148 C75 674 75 674 73 673 C74.29357422 672.41605469 74.29357422 672.41605469 75.61328125 671.8203125 C110.35233696 655.97655187 143.09098005 635.2139269 174.98046875 614.31640625 C177.15701309 612.89765298 179.34300113 611.49437788 181.53125 610.09375 C182.28913818 609.60753174 183.04702637 609.12131348 183.82788086 608.62036133 C185.25700823 607.70398981 186.68739148 606.78957207 188.11938477 605.87768555 C209.38678846 592.20072138 228.33921359 573.90744216 245 555 C245.48774902 554.45166504 245.97549805 553.90333008 246.47802734 553.33837891 C262.92848545 534.79218483 276.8114113 514.55844477 289 493 C289.40669922 492.28521484 289.81339844 491.57042969 290.23242188 490.83398438 C295.69665886 481.15572783 299.90274938 471.69251849 303 461 C302.7097998 461.65258789 302.41959961 462.30517578 302.12060547 462.97753906 C295.13565194 478.51477501 287.3441837 492.46504284 277 506 C276.49017578 506.6712793 275.98035156 507.34255859 275.45507812 508.03417969 C272.36872576 512.0775882 269.20306243 516.0485585 266 520 C265.25492188 520.9384375 264.50984375 521.876875 263.7421875 522.84375 C255.53990435 533.07455479 246.5637504 542.52398485 237.23828125 551.73046875 C235.19585804 553.80140747 233.27117826 555.92063927 231.375 558.125 C224.23146271 566.3903861 216.33985809 573.13636146 207.66503906 579.72314453 C206.24553446 580.81170891 204.85046125 581.93201065 203.4609375 583.05859375 C170.51748249 608.86608863 124.75072226 618.90075037 84.3125 625.25 C83.27432129 625.41330811 82.23614258 625.57661621 81.16650391 625.74487305 C-2.02308732 638.2306289 -92.835487 607.4668936 -159.73828125 558.42578125 C-160.82671696 557.61879831 -161.91396275 556.81020791 -163 556 C-163.54317871 555.59571777 -164.08635742 555.19143555 -164.64599609 554.77490234 C-181.05406607 542.50168546 -196.18277255 528.87779934 -210.72268677 514.45254517 C-212.1444053 513.04273377 -213.57006788 511.63690321 -214.99584961 510.23120117 C-221.10286175 504.13182212 -226.62251363 497.74529337 -232 491 C-232.86349653 489.97254096 -233.73189014 488.94913236 -234.609375 487.93359375 C-257.71317638 460.99321221 -275.23836769 429.72149911 -289.8125 397.5 C-290.37239624 396.2627417 -290.37239624 396.2627417 -290.94360352 395.00048828 C-297.27744683 380.83234048 -297.27744683 380.83234048 -296 377 C-295.59910156 377.77263184 -295.19820313 378.54526367 -294.78515625 379.34130859 C-282.23412516 403.43658455 -268.88529544 426.90679582 -253 449 C-252.55350098 449.62374512 -252.10700195 450.24749023 -251.64697266 450.89013672 C-238.91477283 468.62314385 -225.24740637 485.49825871 -210.39257812 501.49414062 C-208.95705912 503.04643397 -207.531901 504.60767078 -206.109375 506.171875 C-199.4198041 513.5257472 -192.6874882 520.64269658 -185.14453125 527.1328125 C-182.84892571 529.13153645 -180.615204 531.18945229 -178.375 533.25 C-172.19035731 538.84516893 -165.60112067 543.91123983 -159 549 C-158.8831366 547.81202148 -158.8831366 547.81202148 -160.29077148 546.6875 C-160.89477783 546.130625 -161.49878418 545.57375 -162.12109375 545 C-162.80091309 544.36884277 -163.48073242 543.73768555 -164.18115234 543.08740234 C-165.29804443 542.05413818 -165.29804443 542.05413818 -166.4375 541 C-188.98910233 519.90641379 -207.97082831 499.22121186 -221 471 C-221.32323242 470.30374512 -221.64646484 469.60749023 -221.97949219 468.89013672 C-255.90342891 394.78068092 -256.46860476 311.2295817 -230 235 C-229.66419922 234.0203125 -229.32839844 233.040625 -228.98242188 232.03125 C-213.88701683 188.49232084 -190.56129394 149.22089209 -161 114 C-160.21496094 113.02933594 -159.42992187 112.05867188 -158.62109375 111.05859375 C-151.86292572 102.81664704 -144.45018452 95.23509839 -136.9375 87.6875 C-136.43088837 87.17571198 -135.92427673 86.66392395 -135.40231323 86.1366272 C-128.60393461 79.28356367 -121.55372049 73.0277938 -114 67 C-112.89827979 66.06509324 -111.80194949 65.12373591 -110.71484375 64.171875 C-78.73272686 36.28310921 -39.83171658 14.31859093 0 0 Z M-4.10986328 56.69677734 C-6.69833292 56.89853957 -9.28792263 57.08642361 -11.87841797 57.26025391 C-28.60062575 58.39039166 -42.76111951 60.97282717 -58 68 C-59.488808 68.65151421 -60.97837348 69.30130064 -62.46875 69.94921875 C-102.26602349 87.6164217 -136.91594571 118.13339481 -162.54199219 153.02001953 C-163.84896109 154.79488856 -165.17464949 156.55338758 -166.5078125 158.30859375 C-174.9013789 169.62467254 -181.93519422 181.82676387 -189 194 C-189.63083496 195.08498779 -189.63083496 195.08498779 -190.27441406 196.19189453 C-224.6453282 256.00601029 -239.60194861 327.34967679 -221.48925781 394.63867188 C-211.67367625 429.19241656 -195.02779566 460.43437402 -172 488 C-171.67 487.34 -171.34 486.68 -171 486 C-171.69072005 484.22065861 -171.69072005 484.22065861 -172.8515625 482.265625 C-173.5002832 481.08649536 -173.5002832 481.08649536 -174.16210938 479.88354492 C-174.88624023 478.57994019 -174.88624023 478.57994019 -175.625 477.25 C-181.06727255 467.1766649 -185.6737999 456.84075413 -190.14526367 446.31616211 C-190.69168626 445.03099867 -191.23831622 443.74592338 -191.78515625 442.4609375 C-192.05367905 441.82960403 -192.32220184 441.19827057 -192.59886169 440.54780579 C-194.79399422 435.41610047 -197.13760367 430.36380664 -199.52124023 425.31762695 C-210.52105184 401.97739578 -216.52634196 377.90963948 -217 352 C-217.02046387 351.02820801 -217.04092773 350.05641602 -217.06201172 349.05517578 C-217.1223951 345.74506854 -217.15950803 342.4355332 -217.1875 339.125 C-217.20071289 338.07836182 -217.21392578 337.03172363 -217.22753906 335.95336914 C-217.23298477 330.24581033 -216.77221313 325.03203138 -215.51928711 319.46630859 C-214.79358582 316.01965397 -214.41555964 312.55746047 -214.01220703 309.06079102 C-211.91735368 290.92692134 -207.99872177 273.24577333 -202 256 C-201.77199707 255.34338379 -201.54399414 254.68676758 -201.30908203 254.01025391 C-198.45635454 245.90239905 -195.19865233 238.09991212 -191.46313477 230.36083984 C-189.69615235 226.65257584 -188.26492507 222.98759681 -187.0625 219.0625 C-184.84102656 212.02155876 -181.51618709 205.63846274 -178.10302734 199.11621094 C-176.99689865 196.99404991 -175.91315603 194.86155273 -174.83203125 192.7265625 C-158.08445189 159.96993846 -132.65117226 127.91726515 -102.77636719 106.2890625 C-100.87862468 104.91192115 -99.00671869 103.50312032 -97.1328125 102.09375 C-68.68291756 81.02732888 -35.57164843 67.80890941 -1 61 C0.20245361 60.75008301 0.20245361 60.75008301 1.42919922 60.49511719 C28.40568829 55.07625912 60.06981267 55.65430738 87 61 C88.04397949 61.19867676 89.08795898 61.39735352 90.16357422 61.60205078 C113.38490638 66.10204765 135.02638215 73.45713416 156.71484375 82.80078125 C161.40756558 84.8029066 166.13730047 86.4588983 171 88 C148.85749123 65.10068665 103.13569179 58.12972113 73 56 C71.81841309 55.91387451 70.63682617 55.82774902 69.41943359 55.73901367 C60.10969413 55.08952044 50.83527932 54.80621246 41.5 54.8125 C40.80056274 54.81277191 40.10112549 54.81304382 39.38049316 54.81332397 C24.8359249 54.83886298 10.39080821 55.54937219 -4.10986328 56.69677734 Z M-110 126 C-106.03195919 126 -103.30998837 124.2906315 -99.875 122.5 C-98.40438568 121.75114945 -96.93300892 121.00379464 -95.4609375 120.2578125 C-94.71038086 119.87657227 -93.95982422 119.49533203 -93.18652344 119.10253906 C-78.41394698 111.6535713 -63.16546732 105.18605287 -47.9911499 98.60943604 C-44.5729212 97.1268727 -41.16259557 95.62915768 -37.76269531 94.10498047 C-24.15597005 88.02403914 -24.15597005 88.02403914 -16.875 86.25 C-16.08246826 86.05446533 -15.28993652 85.85893066 -14.47338867 85.6574707 C-11.98846864 85.07014361 -9.49870529 84.5253941 -7 84 C-6.22640137 83.83483887 -5.45280273 83.66967773 -4.65576172 83.49951172 C8.63397899 80.82608146 21.99805265 80.71537399 35.5 80.6875 C36.35967377 80.68382416 37.21934753 80.68014832 38.10507202 80.67636108 C48.59536201 80.6529556 58.63405057 81.23033992 69 83 C71.0084704 83.29094064 73.01757825 83.57751966 75.02734375 83.859375 C101.9873245 87.84693796 126.81943435 95.50859717 151.58349609 106.92602539 C154.48049647 108.21354859 157.4179852 109.22549593 160.4375 110.1875 C184.55845365 118.68227063 207.09396336 133.13710317 227 149 C227.97839844 149.76699219 228.95679688 150.53398437 229.96484375 151.32421875 C237.30547056 157.19040115 244.18488514 163.53894713 251 170 C251.75410156 170.7115625 252.50820313 171.423125 253.28515625 172.15625 C258.67446244 177.38484129 263.32905592 183.1309891 268 189 C268.86352114 190.05035332 269.72813435 191.09980963 270.59375 192.1484375 C281.56910078 205.58618122 290.74683385 220.26777128 298.06445312 235.99755859 C299.01695974 238.03630057 300.00015761 240.05843808 300.984375 242.08203125 C315.54417241 272.6865279 321.45102603 305.96089723 321.3125 339.625 C321.30976578 341.00880356 321.30976578 341.00880356 321.30697632 342.42056274 C321.26029053 356.47724364 320.70431324 370.16981776 318 384 C317.82307617 384.93714844 317.64615234 385.87429688 317.46386719 386.83984375 C312.32946655 413.54936829 303.7151206 439.40041605 291.80493164 463.87084961 C291.5393042 464.57346924 291.27367676 465.27608887 291 466 C291.33 466.66 291.66 467.32 292 468 C325.95769213 415.34097017 326.81409458 352.60963785 322.15496826 292.02832031 C322.00126731 290.01658736 321.85409316 288.00445079 321.70751953 285.9921875 C320.58685276 271.18245645 319.23703226 257.56238644 313 244 C312.58041016 243.06236816 312.16082031 242.12473633 311.72851562 241.15869141 C302.5778349 220.8504338 291.81475456 202.45721476 278 185 C277.20980469 183.98421875 276.41960937 182.9684375 275.60546875 181.921875 C269.38387756 174.24288362 262.46020721 167.25309839 255.5 160.25 C255.01526215 159.75990448 254.53052429 159.26980896 254.03109741 158.76486206 C247.37099848 152.04904068 240.44640479 145.83816614 233 140 C232.31067383 139.45666016 231.62134766 138.91332031 230.91113281 138.35351562 C200.81512388 114.90571974 166.82221449 96.97564249 131 84 C129.53264404 83.46632813 129.53264404 83.46632813 128.03564453 82.921875 C45.40464932 53.23119356 -42.75076341 69.74437941 -110 126 Z M-80.8515625 74.51953125 C-81.61162598 74.87700439 -82.37168945 75.23447754 -83.15478516 75.6027832 C-84.3775415 76.20159302 -84.3775415 76.20159302 -85.625 76.8125 C-86.47239746 77.22266357 -87.31979492 77.63282715 -88.19287109 78.05541992 C-111.37805551 89.45786337 -132.09507702 104.42553805 -151 122 C-151.71542969 122.6496875 -152.43085938 123.299375 -153.16796875 123.96875 C-163.59791577 133.84775264 -171.97948908 146.12964384 -180 158 C-179.67 158.66 -179.34 159.32 -179 160 C-177.35293099 158.06353942 -175.7072704 156.1259118 -174.0625 154.1875 C-173.55887939 153.59509521 -173.05525879 153.00269043 -172.53637695 152.39233398 C-169.51907688 148.83215842 -166.58308272 145.22295362 -163.6875 141.5625 C-155.81150165 131.88748763 -146.65281706 122.90239425 -137 115 C-136.24976563 114.37907471 -136.24976563 114.37907471 -135.484375 113.74560547 C-116.41580137 98.00637855 -96.23211014 84.89347211 -74 74 C-77.42569262 72.85810246 -77.75779835 73.05275623 -80.8515625 74.51953125 Z M150 73 C152.23495428 75.23495428 154.02414536 76.0024791 156.9375 77.1875 C157.81277344 77.55230469 158.68804687 77.91710937 159.58984375 78.29296875 C162.10859622 79.28073902 162.10859622 79.28073902 165 78 C163.06532058 77.16013916 161.12714871 76.32831973 159.1875 75.5 C158.10855469 75.0359375 157.02960938 74.571875 155.91796875 74.09375 C153.05117976 72.82450697 153.05117976 72.82450697 150 73 Z M165 79 C169.10093573 82.20822288 173.4850639 84.42636691 178.125 86.75 C178.94871094 87.17410156 179.77242188 87.59820312 180.62109375 88.03515625 C181.40871094 88.43089844 182.19632812 88.82664062 183.0078125 89.234375 C183.72598145 89.59756836 184.44415039 89.96076172 185.18408203 90.33496094 C185.78333496 90.55442383 186.38258789 90.77388672 187 91 C187.66 90.67 188.32 90.34 189 90 C185.94311771 88.34357236 182.87860605 86.70178208 179.8125 85.0625 C178.94818359 84.59392578 178.08386719 84.12535156 177.19335938 83.64257812 C175.93168945 82.9706543 175.93168945 82.9706543 174.64453125 82.28515625 C173.87471924 81.87144775 173.10490723 81.45773926 172.31176758 81.03149414 C169.87819542 79.94565167 167.62365602 79.4240867 165 79 Z M-116 142 C-116.54076172 142.43924805 -117.08152344 142.87849609 -117.63867188 143.33105469 C-131.55560304 154.64983086 -145.02864619 167.31240325 -156.05078125 181.49609375 C-158.19384343 184.24900529 -160.46745535 186.86182837 -162.75 189.5 C-178.3381131 208.22030405 -189.08919159 227.71427544 -196 251 C-196.21672363 251.71833008 -196.43344727 252.43666016 -196.65673828 253.17675781 C-201.24289331 268.6789368 -202.15243849 284.40815775 -202.25 300.5 C-202.2593457 301.58079834 -202.26869141 302.66159668 -202.27832031 303.77514648 C-202.27413086 304.78778564 -202.26994141 305.8004248 -202.265625 306.84375 C-202.26336914 307.74287109 -202.26111328 308.64199219 -202.25878906 309.56835938 C-201.98514268 312.13960275 -201.29880348 313.78416645 -200 316 C-199.85304688 314.82308594 -199.70609375 313.64617187 -199.5546875 312.43359375 C-197.63500816 298.02120919 -194.60412025 283.81236076 -190 270 C-189.89866944 268.56096653 -189.84541094 267.11822227 -189.82421875 265.67578125 C-189.24236455 241.71827277 -182.49085653 224.14863184 -168 205 C-167.19755589 203.91953868 -166.3954657 202.83881441 -165.59375 201.7578125 C-155.93693083 188.85180412 -145.23383599 177.04995401 -133.875 165.625 C-132.96911133 164.70984619 -132.06322266 163.79469238 -131.12988281 162.85180664 C-125.06072264 156.81063265 -118.71761051 151.30627078 -112 146 C-111.35240723 145.47712402 -110.70481445 144.95424805 -110.03759766 144.41552734 C-61.2070968 105.18877109 -0.95368062 88.644342 60.875 88.9375 C62.73828004 88.94252888 64.6015614 88.94708931 66.46484375 88.95117188 C70.97659595 88.96205869 75.48828285 88.97924546 80 89 C26.0149364 53.0099576 -73.93263449 107.13037599 -116 142 Z M60 96 C60 96.33 60 96.66 60 97 C60.8189978 97.08918701 60.8189978 97.08918701 61.65454102 97.18017578 C77.46569003 98.96453698 92.87783341 101.9592778 108 107 C109.35429321 107.10074832 110.71244406 107.15448316 112.0703125 107.17578125 C144.31628868 108.00483446 165.79210658 121.42681944 190 142 C191.05927264 142.87445338 192.11920471 143.74810837 193.1796875 144.62109375 C206.67968563 155.83844602 219.22037178 168.13489849 230 182 C230.92370205 183.11478953 231.85102688 184.22658358 232.78125 185.3359375 C240.81672265 194.99239509 247.58630856 205.20806142 254 216 C254.46792969 216.77939941 254.93585938 217.55879883 255.41796875 218.36181641 C281.02737919 261.42974299 290.32030841 309.99105652 290.0625 359.5 C290.05746689 361.20963408 290.05290724 362.91926963 290.04882812 364.62890625 C290.03798452 368.75264135 290.02082351 372.87630372 290 377 C298.83036444 363.75445334 297.81667469 344.18130621 297 329 C296.95456055 328.14583496 296.90912109 327.29166992 296.86230469 326.41162109 C294.17722894 282.73150183 278.7527047 239.98828022 254 204 C253.5992627 203.41669922 253.19852539 202.83339844 252.78564453 202.23242188 C244.64918858 190.45187574 235.65907637 179.56760336 226 169 C225.15695312 168.05253906 224.31390625 167.10507813 223.4453125 166.12890625 C216.71666894 158.59864643 209.55900979 151.69221316 202 145 C201.49275391 144.54802246 200.98550781 144.09604492 200.46289062 143.63037109 C186.76440807 131.49578386 172.07697147 120.29419516 155.77001953 111.91113281 C154.1668121 111.08586797 152.5803258 110.22831753 150.99609375 109.3671875 C123.25184236 95.2549318 90.43285298 93.51205873 60 96 Z M-98 145 C-98.52996582 145.46825195 -99.05993164 145.93650391 -99.60595703 146.41894531 C-105.13857369 151.3216023 -110.50169908 156.26950435 -115.265625 161.94140625 C-117.43278353 164.51368675 -119.68304825 167.00399985 -121.9375 169.5 C-122.70964844 170.3559375 -123.48179687 171.211875 -124.27734375 172.09375 C-124.84582031 172.7228125 -125.41429687 173.351875 -126 174 C-122.34482236 174 -121.92254182 173.31982656 -119.33203125 170.890625 C-92.74000241 146.76564784 -56.41239129 129.48116442 -22 120 C-21.08331543 119.74621582 -20.16663086 119.49243164 -19.22216797 119.23095703 C-1.98726137 114.56046198 15.29929371 112.04231867 33 110 C33 109.67 33 109.34 33 109 C32.31486328 108.83395264 31.62972656 108.66790527 30.92382812 108.49682617 C27.78128758 107.73214484 24.64065625 106.95988232 21.5 106.1875 C20.42234375 105.92646484 19.3446875 105.66542969 18.234375 105.39648438 C13.55782028 104.24160348 8.97992706 103.08158738 4.48828125 101.328125 C-27.92108084 88.98861424 -75.66813973 125.09751749 -98 145 Z M214 114 C214.33 114.66 214.66 115.32 215 116 C215.66 115.67 216.32 115.34 217 115 C216.01 114.67 215.02 114.34 214 114 Z M217 116 C217.33 116.66 217.66 117.32 218 118 C218.66 117.67 219.32 117.34 220 117 C219.01 116.67 218.02 116.34 217 116 Z M220 118 C223.08505928 121.17697911 226.2515528 124.10249999 229.65576172 126.94384766 C237.24906849 133.30940682 244.35925937 140.13538931 251.375 147.125 C252.28950928 148.03048584 253.20401855 148.93597168 254.14624023 149.86889648 C260.18829117 155.93727205 265.70177644 162.27538169 271 169 C271.53351074 169.6688623 272.06702148 170.33772461 272.61669922 171.02685547 C284.37630592 185.9020152 294.38643573 202.11741403 303 219 C304.2747014 216.17893849 304.2747014 216.17893849 303.35424805 214.07739258 C302.99371338 213.35704834 302.63317871 212.6367041 302.26171875 211.89453125 C301.85888672 211.08387207 301.45605469 210.27321289 301.04101562 209.43798828 C300.59435547 208.57157715 300.14769531 207.70516602 299.6875 206.8125 C299.23181641 205.91772949 298.77613281 205.02295898 298.30664062 204.10107422 C288.71546147 185.55526941 276.78077591 168.64894447 263 153 C262.55011719 152.48163574 262.10023438 151.96327148 261.63671875 151.42919922 C252.34149908 140.74438439 241.78068655 132.19684736 230.375 123.875 C229.5802124 123.29371338 228.7854248 122.71242676 227.96655273 122.11352539 C226.85002319 121.31096313 226.85002319 121.31096313 225.7109375 120.4921875 C225.04368652 120.01120605 224.37643555 119.53022461 223.68896484 119.03466797 C222.0458771 117.82587431 222.0458771 117.82587431 220 118 Z M-173 141 C-173.66 142.32 -174.32 143.64 -175 145 C-174.01 144.34 -173.02 143.68 -172 143 C-172.33 142.34 -172.66 141.68 -173 141 Z M-90 201 C-90.5053125 201.47808105 -91.010625 201.95616211 -91.53125 202.44873047 C-125.27413183 234.57949745 -147.00225042 281.17153839 -148.3828125 327.91015625 C-148.77834904 345.56730443 -148.12931309 362.75181178 -144 380 C-143.79101074 380.88993652 -143.58202148 381.77987305 -143.36669922 382.69677734 C-131.56984172 431.37759229 -100.68321032 472.51626955 -58.5625 499.1875 C-14.96638281 525.28113685 36.18602412 533.82637591 85.76953125 522.05029297 C129.06864918 511.10233996 169.361496 484.92128036 195 448 C195.73089844 446.95199219 196.46179688 445.90398437 197.21484375 444.82421875 C225.61901015 402.34276778 236.5606687 351.40571087 227 301 C223.09522892 282.0077801 216.14894439 264.04867142 207 247 C206.39671875 245.84242188 205.7934375 244.68484375 205.171875 243.4921875 C181.27152876 199.40709507 138.27596047 169.11307013 90.99365234 154.84130859 C78.23649401 151.25615384 65.01311912 148.90254103 51.75 148.76171875 C50.59901321 148.74702797 50.59901321 148.74702797 49.42477417 148.73204041 C-3.33515279 148.19774499 -51.3641874 164.28434074 -90 201 Z M-181 160 C-181 163 -181 163 -181 163 Z M-184 164 C-183 166 -183 166 -183 166 Z M-186 167 C-185 169 -185 169 -185 169 Z M205 173 C205.35989014 173.47816162 205.71978027 173.95632324 206.09057617 174.44897461 C241.68399914 221.81317984 261.68127971 271.18951989 269 330 C269.33 330 269.66 330 270 330 C270.16604736 329.31486328 270.33209473 328.62972656 270.50317383 327.92382812 C271.26785516 324.78128758 272.04011768 321.64065625 272.8125 318.5 C273.07353516 317.42234375 273.33457031 316.3446875 273.60351562 315.234375 C274.7416253 310.62573336 275.85168896 306.16057986 277.69921875 301.78125 C280.19829858 294.51665757 279.04323877 287.55593422 277.4375 280.1875 C277.26041504 279.37345703 277.08333008 278.55941406 276.90087891 277.72070312 C270.51568396 249.83281744 256.62653564 225.5284959 238 204 C237.3296875 203.21882813 236.659375 202.43765625 235.96875 201.6328125 C231.29641349 196.31541461 226.36563143 191.26636265 221.375 186.25 C220.75351074 185.62383789 220.13202148 184.99767578 219.49169922 184.35253906 C213.0970975 176.90740979 213.0970975 176.90740979 205 173 Z M252 187 C253.42446599 190.6933254 255.04671289 194.22938741 256.80078125 197.77734375 C257.63875244 199.48519043 257.63875244 199.48519043 258.49365234 201.22753906 C258.78987488 201.83118286 259.08609741 202.43482666 259.39129639 203.0567627 C265.44960849 215.42546535 271.12103115 227.91766429 276.50927734 240.59179688 C279.00822531 246.46092337 281.56274369 252.26279784 284.44116211 257.95678711 C289.7339945 268.47890159 292.57597996 279.50900478 295 291 C295.17934082 291.83998535 295.35868164 292.6799707 295.54345703 293.54541016 C298.17128268 306.60103253 298.27928118 319.73482434 298.3125 333 C298.31814972 334.25417725 298.31814972 334.25417725 298.32391357 335.53369141 C298.34753895 345.88008121 297.73596459 355.77509817 296 366 C295.70924159 368.00849678 295.42266193 370.01760373 295.140625 372.02734375 C291.03570383 399.78078532 282.72216471 425.10824355 271.39233398 450.74291992 C270.06678751 453.8437643 268.87768153 456.96547394 267.7109375 460.12890625 C265.19580357 466.6986618 262.2142252 472.90517981 258.9375 479.125 C258.08768555 480.74341797 258.08768555 480.74341797 257.22070312 482.39453125 C240.21113124 514.37025593 216.92528254 544.87157958 188 567 C187.11707275 567.68956787 187.11707275 567.68956787 186.21630859 568.39306641 C176.87275746 575.68715621 167.34896522 582.22184867 157 588 C155.94353271 588.59893066 155.94353271 588.59893066 154.86572266 589.20996094 C99.49861645 620.3927541 33.097974 626.62846055 -28 610.25 C-48.72452256 604.44557893 -69.4446272 597.18250507 -88.52734375 587.14453125 C-89.75130859 586.57798828 -89.75130859 586.57798828 -91 586 C-91.66 586.33 -92.32 586.66 -93 587 C-74.38323507 598.839233 -55.33185905 607.33095505 -34 613 C-33.12859375 613.24089355 -32.2571875 613.48178711 -31.359375 613.72998047 C11.67592536 625.47503119 59.08936638 622.43421071 103 618 C103.72345612 617.92810455 104.44691223 617.85620911 105.19229126 617.78213501 C113.19829256 616.96347606 120.8105646 615.9727002 128.3125 612.9375 C129.09826416 612.63223389 129.88402832 612.32696777 130.69360352 612.01245117 C168.64165652 596.96532165 203.54723889 572.23018285 230 541 C230.71494629 540.18547363 230.71494629 540.18547363 231.44433594 539.35449219 C259.69090232 507.16004455 280.4233058 468.06087548 295 428 C295.31807617 427.13487793 295.63615234 426.26975586 295.96386719 425.37841797 C317.95727804 364.90228353 315.54739198 300.44884559 288.4699707 242.03125 C280.62072951 225.62534233 271.13539095 210.35974966 260 196 C259.27296875 195.03835937 258.5459375 194.07671875 257.796875 193.0859375 C255.45918823 189.99376068 255.45918823 189.99376068 253 187 C252.67 187 252.34 187 252 187 Z M-207 189 C-206 191 -206 191 -206 191 Z M-208 191 C-207 193 -207 193 -207 193 Z M-209 193 C-208 195 -208 195 -208 195 Z M-210 195 C-211.03307771 196.76371818 -212.05112049 198.53625033 -213.0625 200.3125 C-213.63097656 201.29863281 -214.19945312 202.28476563 -214.78515625 203.30078125 C-216.37231604 206.012594 -216.37231604 206.012594 -215 209 C-213.96958487 207.04669132 -212.9509107 205.08718472 -211.9375 203.125 C-211.36902344 202.03445312 -210.80054688 200.94390625 -210.21484375 199.8203125 C-209.61349609 198.42425781 -209.61349609 198.42425781 -209 197 C-209.33 196.34 -209.66 195.68 -210 195 Z M-206 200 C-205 202 -205 202 -205 202 Z M-207 202 C-206 204 -206 204 -206 204 Z M-208 204 C-220.29518714 222.19422572 -228.29635356 241.92037726 -234 263 C-234.36569092 264.32378662 -234.36569092 264.32378662 -234.73876953 265.67431641 C-246.48251259 309.05026802 -243.57481473 356.74482923 -239 401 C-238.93009857 401.70884338 -238.86019714 402.41768677 -238.78817749 403.14801025 C-237.94892303 411.5157974 -236.78472018 419.31053248 -233.5625 427.125 C-233.21614502 427.99479492 -232.86979004 428.86458984 -232.51293945 429.76074219 C-223.75665195 451.22083958 -212.32353982 470.8052332 -198 489 C-197.29488281 489.89847656 -196.58976562 490.79695313 -195.86328125 491.72265625 C-184.88946144 505.41530395 -172.73832205 518.67353483 -158.98754883 529.59472656 C-156.10078763 531.91885595 -153.28616433 534.31135439 -150.46875 536.71875 C-144.25038593 541.94886074 -137.66331694 546.53747512 -130.875 551 C-129.99658951 551.58161896 -129.99658951 551.58161896 -129.10043335 552.17498779 C-119.33553902 558.63323283 -109.41155908 564.63800898 -99 570 C-98.34596191 570.34144043 -97.69192383 570.68288086 -97.01806641 571.03466797 C-92.38686126 573.44510162 -87.71180517 575.75155581 -83 578 C-82.27184082 578.34885254 -81.54368164 578.69770508 -80.79345703 579.05712891 C-52.06238644 592.70270242 -21.69723021 603.2430464 10 607 C11.07302368 607.1381311 11.07302368 607.1381311 12.16772461 607.27905273 C56.18485617 612.40739644 100.32157238 603.0758217 140 584 C140.69125977 583.66806641 141.38251953 583.33613281 142.09472656 582.99414062 C170.48917813 569.78974301 170.48917813 569.78974301 192 549 C187.77074476 550.59807736 183.77359921 552.5766671 179.75 554.625 C165.03735606 562.02491996 150.08559732 568.77561296 134.95556641 575.27416992 C133.66177329 575.82989077 132.36799056 576.3856358 131.07421875 576.94140625 C130.44860046 577.21009018 129.82298218 577.47877411 129.17840576 577.75559998 C125.81546638 579.20398883 122.46960948 580.681593 119.14453125 582.21484375 C97.18821862 592.32835936 73.98367373 595.44854554 50 596 C49.11650879 596.02191406 48.23301758 596.04382813 47.32275391 596.06640625 C44.6525924 596.12414988 41.98314034 596.16078361 39.3125 596.1875 C38.51134766 596.20063232 37.71019531 596.21376465 36.88476562 596.22729492 C32.15269607 596.23372974 27.9585467 595.64427228 23.36938477 594.51928711 C18.90516956 593.54088569 14.35086943 593.18218264 9.8125 592.6875 C-16.66474094 589.55846442 -44.24244449 582.44666912 -67.95703125 569.9453125 C-71.69132284 568.02605598 -75.48099678 566.91306543 -79.50927734 565.76904297 C-83.44886561 564.55264393 -87.10541278 562.85317064 -90.8125 561.0625 C-91.61800293 560.67553955 -92.42350586 560.2885791 -93.25341797 559.88989258 C-109.43094174 551.98153761 -124.56216953 542.74252226 -139 532 C-139.88075195 531.35466309 -139.88075195 531.35466309 -140.77929688 530.69628906 C-148.34895531 525.14260495 -155.30307332 519.1261253 -162.125 512.6875 C-164.3290717 510.6271721 -166.54597664 508.66312633 -168.875 506.75 C-171.8678842 504.21587907 -174.40146753 501.42846789 -176.93359375 498.4375 C-178.50813251 496.58019908 -180.10243333 494.75419791 -181.72265625 492.9375 C-189.25030006 484.43309007 -195.82881285 475.52946109 -202 466 C-202.38220703 465.41734375 -202.76441406 464.8346875 -203.15820312 464.234375 C-223.14765583 433.49221846 -235.37270605 397.44165089 -239 361 C-239.11085937 359.9275 -239.22171875 358.855 -239.3359375 357.75 C-243.72507665 307.45283781 -231.5230294 259.06280603 -210.59375 213.609375 C-209.19358417 210.43841122 -208.0271599 207.30745489 -207 204 C-207.33 204 -207.66 204 -208 204 Z M-217 209 C-218.62507196 211.8331162 -218.62507196 211.8331162 -220 215 C-219.67 215.99 -219.34 216.98 -219 218 C-217.37492804 215.1668838 -217.37492804 215.1668838 -216 212 C-216.33 211.01 -216.66 210.02 -217 209 Z M-221 218 C-221.33 219.65 -221.66 221.3 -222 223 C-221.34 222.34 -220.68 221.68 -220 221 C-220.33 220.01 -220.66 219.02 -221 218 Z M304 219 C304.57452746 222.93075644 304.57452746 222.93075644 307 226 C306.42547254 222.06924356 306.42547254 222.06924356 304 219 Z M-223 223 C-223.33 224.65 -223.66 226.3 -224 228 C-223.34 227.34 -222.68 226.68 -222 226 C-222.33 225.01 -222.66 224.02 -223 223 Z M307 226 C308 228 308 228 308 228 Z M-225 228 C-224 231 -224 231 -224 231 Z M308 228 C309 230 309 230 309 230 Z M-226 231 C-225 234 -225 234 -225 234 Z M-227 234 C-226 236 -226 236 -226 236 Z M-228 237 C-227 239 -227 239 -227 239 Z M-229 240 C-228 242 -228 242 -228 242 Z M-208 294 C-207 296 -207 296 -207 296 Z M-209 297 C-224.9126342 342.86873237 -211.52147521 397.25891572 -191.13525391 439.66259766 C-190.76062012 440.43394043 -190.38598633 441.2052832 -190 442 C-189.65243652 442.72106934 -189.30487305 443.44213867 -188.94677734 444.18505859 C-180.51344995 461.46397381 -169.58421107 477.59762561 -157.33007812 492.39355469 C-156.44758113 493.45941927 -155.57118982 494.53037049 -154.70117188 495.60644531 C-148.0770696 503.79525729 -140.85847511 511.34245302 -133.4375 518.8125 C-132.57527832 519.68398682 -131.71305664 520.55547363 -130.82470703 521.45336914 C-124.85776125 527.39150274 -118.58114696 532.75765073 -112 538 C-110.7568527 539.02460558 -109.51565319 540.051584 -108.27734375 541.08203125 C-89.37454199 556.62421148 -69.73860502 568.61877808 -46 575 C-45.32501465 575.18546387 -44.6500293 575.37092773 -43.95458984 575.56201172 C-24.38796048 580.85216299 -1.02316264 584.19245449 19 580 C19 579.67 19 579.34 19 579 C18.35264893 578.91024902 17.70529785 578.82049805 17.03833008 578.72802734 C5.53614226 577.09920152 -5.66291344 575.34165891 -16.75 571.8125 C-24.76482279 569.28906046 -32.0869774 568.49791963 -40.4621582 568.31811523 C-72.33062259 567.48081402 -98.22610848 544.15541464 -120.40625 523.40625 C-122.55881034 521.40929643 -124.74854805 519.50736147 -127 517.625 C-174.82170443 475.91658562 -203.43097098 409.47239965 -207.83227539 346.97387695 C-208.22292965 337.71815729 -208.10020512 328.44944288 -208.0625 319.1875 C-208.05747453 317.0306 -208.05291348 314.87369886 -208.04882812 312.71679688 C-208.03790651 307.47783947 -208.02125158 302.23892516 -208 297 C-208.33 297 -208.66 297 -209 297 Z M326 304 C327 307 327 307 327 307 Z M327 314 C326.97494385 315.25844727 326.9498877 316.51689453 326.92407227 317.81347656 C326.82827111 322.58486239 326.7285084 327.35615927 326.62768555 332.12744141 C326.58497647 334.17331835 326.54327263 336.21921658 326.50268555 338.26513672 C326.23213225 351.85960464 325.7630657 365.42398455 325 379 C325.33 379 325.66 379 326 379 C328.38959739 367.03778924 329.29271092 355.31399717 329.25 343.125 C329.24677734 341.84359131 329.24355469 340.56218262 329.24023438 339.24194336 C329.15762178 330.78991374 328.69872411 322.4220629 328 314 C327.67 314 327.34 314 327 314 Z M-188 348 C-190.24603598 354.46684755 -192.02816168 361.06408456 -193.87695312 367.65234375 C-194.13541016 368.56628906 -194.39386719 369.48023438 -194.66015625 370.421875 C-194.89355713 371.25299805 -195.12695801 372.08412109 -195.36743164 372.94042969 C-196 375 -196 375 -197 377 C-200.54720274 406.84717732 -181.78128888 440.35034464 -164 463 C-160.4523651 467.43844498 -156.75904817 471.74010062 -153 476 C-152.34112793 476.75361816 -152.34112793 476.75361816 -151.66894531 477.52246094 C-146.24489005 483.70242605 -140.5595001 489.5064703 -134.5625 495.125 C-133.97106201 495.681875 -133.37962402 496.23875 -132.77026367 496.8125 C-130.00785504 499.3583966 -127.54249151 501.58996652 -124 503 C-125.66915184 499.10531238 -128.28064538 496.06053353 -130.9375 492.8125 C-163.78490355 451.71381127 -182.17198621 400.02820127 -187 348 C-187.33 348 -187.66 348 -188 348 Z M282 357 C281.91081299 357.8189978 281.91081299 357.8189978 281.81982422 358.65454102 C280.03546302 374.46569003 277.0407222 389.87783341 272 405 C271.88785417 407.08508178 271.78063673 409.17066931 271.70996094 411.25756836 C270.77815887 438.59310669 260.33276828 458.63690856 243.29638672 479.41552734 C242.0827753 480.89883019 240.88642474 482.39620858 239.69140625 483.89453125 C226.52301269 500.30220879 211.70723813 516.15950257 195 529 C193.53240234 530.175625 193.53240234 530.175625 192.03515625 531.375 C153.51959404 562.03184352 105.97821059 581.26760539 57 586 C56.10434326 586.09498779 55.20868652 586.18997559 54.28588867 586.2878418 C43.27344081 587.31415912 32.23536741 587.1096333 21.1875 587.0625 C19.12695422 587.05747388 17.06640724 587.05291295 15.00585938 587.04882812 C10.00387639 587.0379131 5.00195163 587.02071004 0 587 C23.03181328 598.85590607 53.38722914 595.31441762 78 591 C79.15338867 590.8151001 79.15338867 590.8151001 80.33007812 590.62646484 C127.27652792 583.00939317 171.9591922 558.38610724 206.5546875 526.26171875 C208.6653644 524.3095112 210.81227557 522.42693722 213 520.5625 C220.93548178 513.65357951 228.20767633 506.02468619 235 498 C235.79664063 497.0925 236.59328125 496.185 237.4140625 495.25 C248.7629022 482.23730323 259.01428043 468.33399811 267 453 C267.88751953 451.35644531 267.88751953 451.35644531 268.79296875 449.6796875 C272.74827305 441.87385518 275.41287953 433.91218799 277.8125 425.5 C278.10261963 424.49219482 278.39273926 423.48438965 278.69165039 422.44604492 C282.86201266 407.13339949 283.27106414 392.30297817 283.125 376.5625 C283.11494065 374.65560371 283.10582007 372.74870222 283.09765625 370.84179688 C283.07589868 366.22773336 283.04153524 361.61392611 283 357 C282.67 357 282.34 357 282 357 Z M289 378 C290 381 290 381 290 381 Z M324 380 C324 381.65 324 383.3 324 385 C324.33 385 324.66 385 325 385 C325 383.35 325 381.7 325 380 C324.67 380 324.34 380 324 380 Z M323 387 C324 389 324 389 324 389 Z M310 439 C311 441 311 441 311 441 Z M-229 442 C-228 444 -228 444 -228 444 Z M309 442 C310 444 310 444 310 444 Z M308 445 C309 447 309 447 309 447 Z M-227 447 C-226 449 -226 449 -226 449 Z M307 448 C308 450 308 450 308 450 Z M-226 449 C-225 451 -225 451 -225 451 Z M-225 451 C-220.62443716 477.11682232 -198.44932132 503.59898896 -181.50390625 523.11328125 C-179.98786614 524.86110284 -178.48994798 526.62519247 -177.02734375 528.41796875 C-171.22354693 535.38006048 -164.21613539 540.60065425 -157 546 C-156.33355469 546.50450684 -155.66710937 547.00901367 -154.98046875 547.52880859 C-152.97203878 549.04809178 -150.95655918 550.55737862 -148.9375 552.0625 C-148.31866943 552.52769043 -147.69983887 552.99288086 -147.06225586 553.47216797 C-143.83094163 555.84913527 -140.81305903 557.72417496 -137 559 C-140.55176648 555.34975571 -144.26891182 552.00495631 -148.1875 548.75 C-162.28661664 536.90403983 -175.68802978 524.58402772 -187 510 C-188.00624078 508.73416061 -189.01277109 507.46855135 -190.01953125 506.203125 C-203.59163639 488.98365677 -214.15474486 470.55596902 -224 451 C-224.33 451 -224.66 451 -225 451 Z M306 451 C307 454 307 454 307 454 Z M305 454 C306 456 306 456 306 456 Z M290 468 C291 470 291 470 291 470 Z M289 470 C290 472 290 472 290 472 Z M288 472 C289 474 289 474 289 474 Z M-171 488 C-170 490 -170 490 -170 490 Z M206 501 C205.33871094 501.64001953 205.33871094 501.64001953 204.6640625 502.29296875 C163.06725425 540.94134423 104.48169376 560.64414781 49 566 C51.95205008 567.59380778 54.78584347 568.5863244 58.02734375 569.4375 C58.98447266 569.69273437 59.94160156 569.94796875 60.92773438 570.2109375 C61.92095703 570.47132813 62.91417969 570.73171875 63.9375 571 C65.90569241 571.51801285 67.873168 572.03875851 69.83984375 572.5625 C70.70988037 572.79066406 71.57991699 573.01882813 72.47631836 573.25390625 C75.06097256 574.01802575 77.5003629 574.9969442 80 576 C106.79251123 580.18632988 140.31962381 561.55690227 161.04541016 546.53466797 C177.92670738 533.96690098 193.54736159 519.18247575 207 503 C206.67 502.34 206.34 501.68 206 501 Z M266 508 C267 510 267 510 267 510 Z M264 511 C265 513 265 513 265 513 Z M262 514 C262 517 262 517 262 517 Z M260 517 C258.25752787 518.97761543 256.55845917 520.97302865 254.875 523 C253.86241671 524.20739833 252.84939725 525.41443101 251.8359375 526.62109375 C251.34448242 527.20745605 250.85302734 527.79381836 250.34667969 528.39794922 C247.61652687 531.64582137 244.8257226 534.83519069 242 538 C241.19175781 538.91265625 240.38351562 539.8253125 239.55078125 540.765625 C216.18499403 566.89656901 186.92991158 585.98610453 156 602 C159.42569262 603.14189754 159.75779835 602.94724377 162.8515625 601.48046875 C163.61162598 601.12299561 164.37168945 600.76552246 165.15478516 600.3972168 C165.96995605 599.99801025 166.78512695 599.59880371 167.625 599.1875 C168.47239746 598.77733643 169.31979492 598.36717285 170.19287109 597.94458008 C190.17299205 588.11838266 208.32886562 575.73211207 225 561 C225.88171875 560.24074219 226.7634375 559.48148438 227.671875 558.69921875 C237.16066316 550.40389618 245.00603169 541.21214966 252.5 531.125 C253.41797363 529.89354248 253.41797363 529.89354248 254.35449219 528.63720703 C254.92844727 527.85200684 255.50240234 527.06680664 256.09375 526.2578125 C256.86235352 525.20811279 256.86235352 525.20811279 257.64648438 524.13720703 C259.10204132 521.83887631 260.06589004 519.54985267 261 517 C260.67 517 260.34 517 260 517 Z M-137 559 C-136.67 559.66 -136.34 560.32 -136 561 C-135.34 560.67 -134.68 560.34 -134 560 C-134.99 559.67 -135.98 559.34 -137 559 Z M-104 587 C-101.42639878 589.9667903 -98.48295779 591.49144778 -95 593.25 C-93.948125 593.79140625 -92.89625 594.3328125 -91.8125 594.890625 C-88.98775567 596.35273621 -88.98775567 596.35273621 -86 595 C-88.6226232 593.66180502 -91.24786599 592.3292849 -93.875 591 C-94.62136719 590.6184375 -95.36773437 590.236875 -96.13671875 589.84375 C-96.85214844 589.4828125 -97.56757813 589.121875 -98.3046875 588.75 C-98.96452637 588.41484375 -99.62436523 588.0796875 -100.30419922 587.734375 C-101.9978855 586.86753587 -101.9978855 586.86753587 -104 587 Z M-86 596 C-84.19038423 597.62831762 -84.19038423 597.62831762 -82 599 C-81.01 598.67 -80.02 598.34 -79 598 C-81.64738916 596.5393715 -82.89448334 596 -86 596 Z M-79 599 C-75.79663178 601.83374881 -73.21912747 602.5205537 -69 603 C-71.2551922 600.7448078 -73.0047587 600.02276532 -76 599 C-76.99 599 -77.98 599 -79 599 Z " fill="#1B4A82" transform="translate(299,1)"/>
<path d="M0 0 C5.1879644 2.61804512 7.39220565 6.20241232 9.35857768 11.61296261 C10.55254557 16.05628472 10.41064607 20.50568319 10.38031673 25.07929897 C10.38497665 26.17989951 10.38963657 27.28050004 10.3944377 28.41445211 C10.40640917 32.11044235 10.39698361 35.80606647 10.38768005 39.50205994 C10.39185202 42.17543205 10.39720679 44.84877815 10.40399987 47.52214247 C10.41636969 53.33871446 10.41757786 59.15520579 10.41144943 64.9717865 C10.40236056 73.62127288 10.41038861 82.27068463 10.42174067 90.92016528 C10.44141487 106.3682173 10.44375357 121.81623578 10.43854547 137.26429734 C10.43398979 150.78370669 10.43458562 164.30310275 10.44038582 177.82251167 C10.44114268 179.63539214 10.44189866 181.4482726 10.44265376 183.26115306 C10.44379895 185.99293497 10.44494882 188.72471688 10.44611301 191.45649879 C10.45681925 216.85662256 10.46154194 242.2567419 10.45364285 267.65686703 C10.45319709 269.09332456 10.45319709 269.09332456 10.45274232 270.55880144 C10.45029334 278.33570202 10.44768177 286.11260255 10.44505819 293.88950307 C10.43495471 324.22803283 10.44331256 354.56650725 10.46655273 384.9050293 C10.49261675 418.98509762 10.50547562 453.06513262 10.49836498 487.14521128 C10.49764891 490.7780317 10.49697453 494.41085213 10.49632454 498.04367256 C10.49615473 498.93817526 10.49598492 499.83267796 10.49580997 500.75428681 C10.49350571 514.26486834 10.50148997 527.77541897 10.51461601 541.28599358 C10.52951433 556.64822638 10.53038773 572.01038667 10.5125451 587.37261789 C10.50296949 595.97135613 10.50444264 604.56992533 10.52177979 613.16865234 C10.53225139 618.91154072 10.52819419 624.65430005 10.51229975 630.39717568 C10.50364918 633.66983649 10.5034883 636.94209913 10.51656907 640.21475505 C10.52966679 643.74176994 10.5182186 647.26788424 10.50057125 650.79485989 C10.51022176 651.80854583 10.51987227 652.82223177 10.52981523 653.86663547 C10.45168393 661.44952589 8.88279711 668.50413929 3.375 674.0625 C-1.19206461 676.68433339 -4.85057908 676.90567705 -10 676 C-14.83259783 673.47864461 -17.31020586 669.06938243 -19 664 C-19.98775564 657.67522092 -20.14182533 651.50725151 -20.12863445 645.1136961 C-20.13126401 643.49408481 -20.13126401 643.49408481 -20.13394669 641.84175411 C-20.13860564 638.2168115 -20.13614144 634.59190901 -20.13371277 630.96696472 C-20.13558079 628.34452653 -20.13788146 625.72208862 -20.14057809 623.09965116 C-20.14572684 617.39431029 -20.1471502 611.68897791 -20.14612198 605.98363495 C-20.14459668 597.49943089 -20.14875962 589.01523621 -20.1539966 580.53103398 C-20.16366762 564.49650146 -20.16648075 548.46197213 -20.16705366 532.42743703 C-20.16751318 520.04547395 -20.16957139 507.66351213 -20.17275429 495.28154945 C-20.17365183 491.71760172 -20.17454164 488.15365398 -20.17542917 484.58970624 C-20.17565021 483.70370435 -20.17587126 482.81770246 -20.17609901 481.90485203 C-20.18225317 456.98342629 -20.18619957 432.06200099 -20.18575573 407.14057446 C-20.18574015 406.20098086 -20.18572457 405.26138727 -20.18570852 404.29332114 C-20.18562541 399.53105 -20.18552637 394.76877886 -20.18542381 390.00650772 C-20.18540387 389.06069998 -20.18538392 388.11489224 -20.18536337 387.14042366 C-20.18532294 385.22777035 -20.18528114 383.31511704 -20.18523798 381.40246373 C-20.18462516 351.64126976 -20.19213313 321.88008719 -20.20581055 292.11889648 C-20.2211699 258.68411983 -20.22977687 225.24935066 -20.22884732 191.81457025 C-20.22877269 188.24967945 -20.22872399 184.68478864 -20.22869301 181.11989784 C-20.22868135 180.24212779 -20.2286697 179.36435774 -20.22865769 178.4599886 C-20.22862692 164.33285217 -20.23501344 150.20572563 -20.24362527 136.07859214 C-20.25210058 121.88186443 -20.25309265 107.68515119 -20.24651595 93.48842236 C-20.2428196 85.05456063 -20.24465524 76.62074286 -20.25445829 68.18688579 C-20.26045527 62.55135361 -20.25916596 56.91585328 -20.25198779 51.28032256 C-20.24810393 48.07069792 -20.248444 44.86117525 -20.25544515 41.65155341 C-20.26249839 38.1889 -20.2572167 34.72647305 -20.24888897 31.26382732 C-20.25385715 30.27464755 -20.25882533 29.28546778 -20.26394406 28.26631287 C-20.21373609 18.39210509 -19.67264348 9.64912789 -13 2 C-8.72520667 -0.84986222 -5.01365487 -0.85209309 0 0 Z " fill="#1B4885" transform="translate(771,0)"/>
<path d="M0 0 C90.29831081 0 90.29831081 0 107.75 16.0625 C115.16906479 23.98054614 118.9728815 33.27231791 120 44 C120.07089844 44.72445312 120.14179687 45.44890625 120.21484375 46.1953125 C121.08896977 65.14636464 111.41268838 83.37631763 99 97 C99.66644531 97.31710938 100.33289062 97.63421875 101.01953125 97.9609375 C114.48260192 104.77720545 123.98379941 114.17959414 129.27734375 128.44140625 C132.34998478 138.05297731 133.21159362 146.80964718 133.24023438 156.87329102 C133.24982727 158.90098931 133.28084804 160.92762184 133.3125 162.95507812 C133.46367454 181.55634036 129.50259024 198.81577479 116.41796875 212.67578125 C88.68802165 238.78646137 28.14164477 229 0 229 C0 153.43 0 77.86 0 0 Z M23 19 C23 43.09 23 67.18 23 92 C32.425625 92.37125 41.85125 92.7425 51.5625 93.125 C56.00891968 93.33987061 56.00891968 93.33987061 60.54516602 93.55908203 C62.9062961 93.62936081 65.26754305 93.69585914 67.62890625 93.7578125 C68.8454187 93.83056396 70.06193115 93.90331543 71.31530762 93.97827148 C77.91420369 94.18584971 77.91420369 94.18584971 83.3160553 90.84629822 C85.12715376 88.29999892 86.60902682 85.79467189 88 83 C88.34658661 82.36770981 88.69317322 81.73541962 89.05026245 81.08396912 C96.13447591 67.66683082 98.99109351 53.84245374 95 39 C92.05003172 31.89106004 88.16237369 26.96921188 81 24 C61.44642554 17.28416952 44.8170975 19 23 19 Z M23 111 C23 143.67 23 176.34 23 210 C57.99638895 212.37518884 57.99638895 212.37518884 93 203 C93.70253906 202.56816406 94.40507813 202.13632812 95.12890625 201.69140625 C103.90226933 195.72939708 107.11225592 187.89774966 109.26953125 177.6796875 C112.1876454 161.18043548 111.34151262 141.45296615 101.75390625 127.1796875 C93.42234925 116.82554763 84.71428002 113.82539556 72 111 C55.83 111 39.66 111 23 111 Z " fill="#1B4A82" transform="translate(1187,59)"/>
<path d="M0 0 C23.18427687 18.09807976 32.4782943 44.73496065 36 73 C39.83230362 105.76813144 37.44034724 139.89822863 21 169 C20.44441406 169.99644531 19.88882812 170.99289063 19.31640625 172.01953125 C7.55410054 191.73620197 -11.86841588 206.55291625 -34.0625 212.4375 C-58.12435628 218.36655409 -84.40554557 216.0145726 -107 206 C-108.49273438 205.33871094 -108.49273438 205.33871094 -110.015625 204.6640625 C-128.47861346 195.53807106 -141.89715914 176.84712825 -148.57421875 157.72265625 C-161.32633488 117.95552422 -159.86412097 69.82115151 -140.75 32.3125 C-128.73538952 10.93551093 -109.70869111 -6.18739338 -85.82714844 -12.92675781 C-82.89769499 -13.69319311 -79.96392494 -14.37988805 -77 -15 C-75.66582031 -15.28810547 -75.66582031 -15.28810547 -74.3046875 -15.58203125 C-48.87454939 -18.79837259 -21.27239128 -15.05830959 0 0 Z M-107.140625 23.9453125 C-122.29670646 39.61877023 -129.63219011 60.68971103 -132 82 C-132.11085938 82.93585938 -132.22171875 83.87171875 -132.3359375 84.8359375 C-135.3034057 114.10961031 -132.4935274 146.53684584 -114.625 170.9375 C-102.16811313 185.67205693 -86.390165 193.11126982 -67.2434082 194.72875977 C-48.68909249 195.90547074 -30.96995828 191.95622363 -16.48730469 179.72216797 C3.52895511 161.95852173 11.85913229 136.46915996 13.859375 110.40917969 C15.56870189 81.12508644 13.06596102 48.2480974 -7.03125 25.09765625 C-8.00578125 24.05931641 -8.00578125 24.05931641 -9 23 C-9.5671875 22.37996094 -10.134375 21.75992188 -10.71875 21.12109375 C-23.9501896 8.15080099 -43.00299889 4.18816424 -60.859375 3.97265625 C-78.40176244 4.19673784 -94.72827121 11.77840647 -107.140625 23.9453125 Z " fill="#1B4A82" transform="translate(1112,74)"/>
<path d="M0 0 C22.73465332 19.71127048 30.14595493 50.36494703 32.28125 79.21484375 C34.50494388 115.34629185 30.01100583 152.39073082 5.4375 180.5625 C3.91611976 182.16533583 2.37384798 183.74857128 0.8125 185.3125 C-0.01894531 186.15554688 -0.85039063 186.99859375 -1.70703125 187.8671875 C-19.96925969 205.46095956 -43.32114957 211.83729947 -68.18066406 211.66601562 C-92.96500873 211.11751606 -116.05431574 204.18441812 -134.1171875 186.4140625 C-159.6848176 158.57375417 -161.53989889 120.02388167 -160.27862549 84.34985352 C-159.92936737 76.54125606 -158.86618668 68.9391053 -157.1875 61.3125 C-157.02652832 60.55598145 -156.86555664 59.79946289 -156.69970703 59.02001953 C-150.68496148 31.83521855 -135.47619731 7.95290618 -111.98583984 -7.35620117 C-78.5788858 -27.8910249 -30.43452762 -23.97871873 0 0 Z M-114.90625 23.6875 C-136.90603112 49.00231664 -138.621901 83.49526596 -137.1875 115.3125 C-135.63984681 137.34148019 -128.08513928 159.93929993 -111.91015625 175.50390625 C-96.94932215 188.28244688 -77.24840654 192.32829988 -57.98144531 191.18115234 C-39.46228071 189.46145586 -23.10554933 180.03262874 -11.125 165.90234375 C2.32732884 147.92070257 8.88233931 125.38682194 9.015625 103.0703125 C9.02132507 102.30306854 9.02702515 101.53582458 9.03289795 100.74533081 C9.04228725 99.12678375 9.04885756 97.50821809 9.05273438 95.88964844 C9.06233811 93.47815064 9.09337646 91.06754489 9.125 88.65625 C9.29819436 63.28700658 3.93087874 37.60258597 -14.4296875 18.97265625 C-28.8603739 5.0529715 -46.17058801 0.30916679 -65.92529297 0.2421875 C-85.48127273 0.8500142 -101.51935745 9.79224445 -114.90625 23.6875 Z " fill="#1B4A82" transform="translate(1253.1875,406.6875)"/>
<path d="M0 0 C94.5031198 0 94.5031198 0 113.8125 18.59765625 C126.70079853 32.75176982 127.64247996 52.11359931 127.12744141 70.31689453 C126.2325748 89.1570938 120.03424886 104.92849105 106.046875 117.796875 C104.39608608 119.24669831 102.72077242 120.6344329 101 122 C99.3331201 123.33306675 97.66643448 124.66637649 96 126 C96.41660889 126.85303711 96.83321777 127.70607422 97.26245117 128.58496094 C105.07219816 144.58659441 112.80584293 160.6128277 120.25878906 176.78442383 C124.57545531 186.13429069 129.01666064 195.41833423 133.51245117 204.68310547 C136.16716083 210.16023569 138.79602238 215.64874343 141.37890625 221.16015625 C141.88107666 222.23015869 142.38324707 223.30016113 142.90063477 224.40258789 C144 227 144 227 144 229 C135.75 229 127.5 229 119 229 C100.35420092 190.96020715 100.35420092 190.96020715 91.67236328 172.08007812 C85.63074435 158.96558164 79.31291285 145.9854819 73 133 C68.38 133.33 63.76 133.66 59 134 C47.12 134 35.24 134 23 134 C23 165.35 23 196.7 23 229 C15.41 229 7.82 229 0 229 C0 153.43 0 77.86 0 0 Z M23 19 C23 50.68 23 82.36 23 115 C60.55633421 116.76653366 60.55633421 116.76653366 92.80859375 100.56640625 C103.21687833 88.37702485 105.19756133 71.48513325 104 56 C102.53787592 45.1437287 98.8523237 35.20979133 89.9765625 28.30859375 C70.03383916 15.10540735 46.1250202 19 23 19 Z " fill="#1B4A82" transform="translate(1325,388)"/>
<path d="M0 0 C39.27 0 78.54 0 119 0 C119 11 119 11 118 21 C86.65 21 55.3 21 23 21 C23 48.72 23 76.44 23 105 C52.04 105 81.08 105 111 105 C110 123 110 123 109 126 C80.62 126 52.24 126 23 126 C23 153.06 23 180.12 23 208 C56.99 208 90.98 208 126 208 C125 225 125 225 124 229 C83.08 229 42.16 229 0 229 C0 153.43 0 77.86 0 0 Z " fill="#1B4A82" transform="translate(1674,388)"/>
<path d="M0 0 C8.94627802 -2.08682946 18.27587835 -3.51364428 27 0 C34.90786897 7.45828454 39.24572079 18.10610826 43.89599609 27.76855469 C46.8288036 33.78825233 50.39505815 39.36091466 54 45 C58.4802189 52.18710119 62.86045714 59.42366058 67.1484375 66.7265625 C67.5838385 67.46670593 68.0192395 68.20684937 68.46783447 68.96942139 C70.61585057 72.6225161 72.75554392 76.28009758 74.8828125 79.9453125 C75.6585705 81.26839553 76.43459839 82.59132037 77.2109375 83.9140625 C77.56537933 84.53141266 77.91982117 85.14876282 78.28500366 85.78482056 C79.13455138 87.22408583 80.06008437 88.6180541 81 90 C81.66 90 82.32 90 83 90 C83.40089844 89.29842773 83.80179688 88.59685547 84.21484375 87.87402344 C84.78332031 86.87918945 85.35179687 85.88435547 85.9375 84.859375 C86.57695557 83.74030762 87.21641113 82.62124023 87.87524414 81.46826172 C89.3118382 78.95421165 90.74853682 76.44022138 92.18530273 73.92626953 C95.82443319 67.55857441 99.46259837 61.19033348 103.09765625 54.8203125 C109.775563 43.11944918 116.46627019 31.42603044 123.1875 19.75 C123.79924072 18.68507324 124.41098145 17.62014648 125.04125977 16.52294922 C126.1756419 14.55521123 127.32344555 12.59512495 128.48706055 10.64453125 C130.01975023 8.07075105 130.01975023 8.07075105 131.10083008 5.51171875 C132.20957076 3.18497911 133.03531968 1.67526813 135 0 C139.14589097 -0.96610741 143.08535738 -0.75693912 147.3125 -0.5 C148.99569336 -0.44585937 148.99569336 -0.44585937 150.71289062 -0.390625 C153.47874621 -0.29646821 156.23762241 -0.16512661 159 0 C155.5716365 7.23990897 151.64701233 14.07554184 147.44396973 20.89108276 C145.56026862 23.94653114 143.69051167 27.01049363 141.8203125 30.07421875 C141.42823608 30.71603592 141.03615967 31.35785309 140.63220215 32.01911926 C136.51499792 38.77169184 132.48715327 45.57648184 128.4631958 52.3848877 C122.7219042 62.0986089 116.95561118 71.79045692 111 81.375 C110.49235107 82.19540771 109.98470215 83.01581543 109.46166992 83.86108398 C106.91269828 87.96912327 104.32572896 92.04768837 101.69140625 96.1015625 C101.16482422 96.9260791 100.63824219 97.7505957 100.09570312 98.60009766 C99.10307337 100.15384774 98.09608353 101.69855495 97.07226562 103.23193359 C96.63720703 103.91852051 96.20214844 104.60510742 95.75390625 105.3125 C95.36533447 105.90675781 94.9767627 106.50101562 94.57641602 107.11328125 C93.71367976 109.93718034 94.70683687 111.4124296 96 114 C96.81327406 115.45670176 97.66398728 116.8930006 98.546875 118.30859375 C99.05460449 119.12626221 99.56233398 119.94393066 100.08544922 120.78637695 C100.63475098 121.66124756 101.18405273 122.53611816 101.75 123.4375 C102.32637207 124.36199951 102.90274414 125.28649902 103.49658203 126.23901367 C108.16193474 133.70571981 112.88739792 141.13406177 117.62597656 148.55444336 C121.95867714 155.3441313 126.23954837 162.16478002 130.5 169 C136.48712724 178.60294629 142.54039002 188.16172587 148.625 197.703125 C151.99106392 202.9820794 155.34278581 208.26999676 158.6875 213.5625 C159.18080811 214.34214111 159.67411621 215.12178223 160.18237305 215.92504883 C161.45947216 217.94721576 162.73061629 219.97298498 164 222 C164.60457031 222.95777344 165.20914062 223.91554688 165.83203125 224.90234375 C167 227 167 227 167 229 C162.79285562 229.26221814 158.58781109 229.42147604 154.375 229.5625 C153.18519531 229.63791016 151.99539063 229.71332031 150.76953125 229.79101562 C142.18399708 230.00685308 142.18399708 230.00685308 139.06469727 227.35424805 C137.46228307 224.98312067 136.23716892 222.57978371 135 220 C133.92509584 218.20321739 132.83450736 216.41574811 131.73046875 214.63671875 C130.54751755 212.65481536 129.36663097 210.67167861 128.1875 208.6875 C126.85611241 206.45794884 125.52405605 204.22879694 124.19140625 202 C123.8486969 201.42654343 123.50598755 200.85308685 123.15289307 200.26225281 C119.33958505 193.88619416 115.48421162 187.53584358 111.625 181.1875 C110.91706282 180.02238609 110.20913643 178.85726562 109.5012207 177.69213867 C106.18545478 172.23589229 102.86702058 166.7812714 99.54763794 161.32722473 C98.02243489 158.82069495 96.49806431 156.31365948 94.97381592 153.80654907 C93.9151903 152.06607635 92.85532459 150.32635808 91.79541016 148.58666992 C91.13847168 147.50619385 90.4815332 146.42571777 89.8046875 145.3125 C89.17272461 144.27351562 88.54076172 143.23453125 87.88964844 142.1640625 C85.3295213 137.87733799 82.88063269 133.52910722 80.44970703 129.16796875 C79.97130371 128.45253906 79.49290039 127.73710938 79 127 C78.34 127 77.68 127 77 127 C76.6189209 127.69222656 76.2378418 128.38445312 75.84521484 129.09765625 C68.44882778 142.51590013 60.96788125 155.86673254 53.20263672 169.07617188 C48.445995 177.18611903 43.8492825 185.37880662 39.27832031 193.59448242 C33.39558816 204.14033564 27.30342558 214.5611327 21.17651367 224.96655273 C20.41142348 226.28890928 19.68322615 227.6335477 19 229 C11.08 229 3.16 229 -5 229 C-3.46529932 224.39589795 -2.22513771 221.40491791 0.24609375 217.4140625 C1.24020264 215.79528198 1.24020264 215.79528198 2.25439453 214.14379883 C2.60906799 213.57223053 2.96374146 213.00066223 3.3291626 212.41177368 C5.25976238 209.29941379 7.16947986 206.17425198 9.08203125 203.05078125 C9.68467804 202.06826637 9.68467804 202.06826637 10.29949951 201.06590271 C14.81559687 193.69215328 19.22192408 186.2540853 23.625 178.8125 C25.23001143 176.1025935 26.83561236 173.39303665 28.44140625 170.68359375 C28.83044128 170.02706818 29.21947632 169.3705426 29.62030029 168.69412231 C33.24770792 162.57572902 36.90180236 156.4735276 40.5625 150.375 C41.14588135 149.39797119 41.7292627 148.42094238 42.33032227 147.41430664 C45.41217101 142.26224037 48.52861653 137.13510624 51.70521545 132.04104614 C53.41662537 129.29161686 55.11396605 126.53363586 56.81002808 123.77471924 C57.63922354 122.43425964 58.47502756 121.09786363 59.31765747 119.76580811 C60.49030575 117.91100198 61.63969166 116.04355187 62.78515625 114.171875 C63.45426025 113.1003418 64.12336426 112.02880859 64.81274414 110.92480469 C66.29747651 108.08936593 66.29747651 108.08936593 65.34423828 105.35180664 C64.90063965 104.57571045 64.45704102 103.79961426 64 103 C63.64010986 102.36280029 63.28021973 101.72560059 62.90942383 101.0690918 C62.51263428 100.45203369 62.11584473 99.83497559 61.70703125 99.19921875 C61.24941406 98.48185547 60.79179688 97.76449219 60.3203125 97.02539062 C59.82273437 96.25388672 59.32515625 95.48238281 58.8125 94.6875 C57.72460664 92.98349013 56.63739972 91.27904188 55.55078125 89.57421875 C54.97408691 88.67106934 54.39739258 87.76791992 53.80322266 86.83740234 C50.672042 81.91043489 47.58828363 76.95392369 44.5 72 C38.51490652 62.41169797 32.49635133 52.84525021 26.45166016 43.29443359 C24.97057664 40.95349466 23.49089283 38.61167713 22.01171875 36.26953125 C21.51414062 35.48167236 21.0165625 34.69381348 20.50390625 33.88208008 C19.51007132 32.30791654 18.51657554 30.73353884 17.5234375 29.15893555 C14.89652443 24.99546894 12.26092508 20.83781973 9.61328125 16.6875 C9.06091797 15.81931641 8.50855469 14.95113281 7.93945312 14.05664062 C6.87695948 12.38700776 5.81196365 10.71896384 4.74414062 9.05273438 C4.26783203 8.30314453 3.79152344 7.55355469 3.30078125 6.78125 C2.87966064 6.12189453 2.45854004 5.46253906 2.0246582 4.78320312 C1 3 1 3 0 0 Z " fill="#1B4A82" transform="translate(1831,388)"/>
<path d="M0 0 C7.59 0 15.18 0 23 0 C31.30070595 22.44214044 39.52645938 44.91067959 47.69555664 67.40106201 C54.45059133 85.9981006 61.22513441 104.58789114 68.01397705 123.17260742 C77.36571439 148.77336645 86.69641359 174.38169713 96 200 C103.58816692 177.82123265 111.15373867 155.63481014 118.6875 133.4375 C119.06996887 132.31062775 119.45243774 131.18375549 119.84649658 130.0227356 C125.2266648 114.16654427 130.58696102 98.30370997 135.9375 82.4375 C136.5423804 80.6440469 137.14726424 78.85059496 137.75215149 77.05714417 C140.4382979 69.0924213 143.12374682 61.12746572 145.80644321 53.16158009 C151.78542807 35.41014434 157.80492455 17.677523 164 0 C171.26 0 178.52 0 186 0 C184.87486862 6.75078828 184.87486862 6.75078828 183.71923828 10.06274414 C183.32965691 11.19020302 183.32965691 11.19020302 182.9322052 12.34043884 C182.64778061 13.14719559 182.36335602 13.95395233 182.0703125 14.78515625 C181.76876755 15.65213638 181.4672226 16.51911652 181.15653992 17.41236877 C180.15113103 20.29755665 179.13826042 23.18006098 178.125 26.0625 C177.40436503 28.12347363 176.68390997 30.18451017 175.96362305 32.24560547 C170.27224587 48.50068443 164.46027533 64.71211883 158.62762451 80.91693115 C152.06981065 99.13984573 145.6314888 117.4023351 139.25 135.6875 C128.36782593 166.86440902 117.34069742 197.9866642 106 229 C98.41 229 90.82 229 83 229 C44.75000001 124.87500003 44.75000001 124.87500003 43.62510681 121.81278992 C42.8747515 119.77015659 42.12439547 117.72752354 41.3740387 115.68489075 C39.5044689 110.59551616 37.63491163 105.50613697 35.76538086 100.41674805 C32.72281303 92.13405698 29.68023521 83.85136961 26.63720703 75.56884766 C26.24398254 74.49856323 25.85075806 73.42827881 25.44561768 72.32556152 C24.6532918 70.16905543 23.86093358 68.01256123 23.06854248 65.8560791 C21.14383592 60.61779087 19.21979795 55.3792592 17.29736328 50.14013672 C12.79915812 37.88235183 12.79915812 37.88235183 8.2696991 25.63609314 C7.2091249 22.77978947 6.15166346 19.92233852 5.0944519 17.06478882 C4.39793154 15.18682811 3.6962451 13.31078597 2.99438477 11.43481445 C2.59147217 10.34515381 2.18855957 9.25549316 1.7734375 8.1328125 C1.25402588 6.73893311 1.25402588 6.73893311 0.72412109 5.31689453 C0 3 0 3 0 0 Z " fill="#1B4A82" transform="translate(880,388)"/>
<path d="M0 0 C49.17 0 98.34 0 149 0 C148.34 6.93 147.68 13.86 147 21 C126.54 21 106.08 21 85 21 C85 89.64 85 158.28 85 229 C77.74 229 70.48 229 63 229 C63 160.36 63 91.72 63 21 C41.88 21 20.76 21 -1 21 C-1 11 -1 11 0 0 Z " fill="#1C4A82" transform="translate(1489,388)"/>
<path d="M0 0 C7.59 0 15.18 0 23 0 C23.09058753 30.4296029 23.16212568 60.85917591 23.20426132 91.28888187 C23.20926363 94.88838892 23.21444097 98.4878957 23.21972656 102.08740234 C23.2207758 102.80394354 23.22182505 103.52048473 23.22290608 104.25873929 C23.24027064 115.83275492 23.27178632 127.40669038 23.30861118 138.98065859 C23.34613097 150.87298135 23.36825907 162.76526237 23.37635398 174.65764189 C23.38133088 181.33052664 23.39371821 188.00326572 23.42292023 194.67610168 C23.45022421 200.96664455 23.45841477 207.25693272 23.45243073 213.54752922 C23.45352428 215.84677963 23.46138812 218.14603924 23.4768219 220.44523811 C23.57722593 236.1847906 22.92834268 251.13095186 15.25 265.3125 C14.90420898 265.97290283 14.55841797 266.63330566 14.20214844 267.3137207 C5.49855075 283.52742638 -8.17730689 298.15248368 -23 309 C-26.56236008 307.50429125 -28.72604957 305.47151401 -31.3125 302.625 C-32.03050781 301.85414063 -32.74851562 301.08328125 -33.48828125 300.2890625 C-35 298 -35 298 -34.94140625 295.91796875 C-33.81074625 293.61442493 -32.54527173 292.39223103 -30.625 290.6875 C-15.96834248 276.47657268 -1.23601161 253.61528059 -0.8613348 232.68344402 C-0.8497985 230.92275204 -0.84367915 229.16201964 -0.84178162 227.40129089 C-0.83684364 226.42921686 -0.83190566 225.45714283 -0.82681805 224.455612 C-0.81145072 221.19591428 -0.80308446 217.93623623 -0.79467773 214.67651367 C-0.78509862 212.34082872 -0.77508851 210.00514551 -0.76467896 207.66946411 C-0.73762753 201.32493229 -0.71661921 194.98039303 -0.69667697 188.63583541 C-0.67703297 182.67822248 -0.65288498 176.72062926 -0.62875474 170.76303307 C-0.58111097 158.96386097 -0.53783809 147.16467706 -0.49731445 135.36547852 C-0.45794316 123.90453167 -0.41651302 112.44359531 -0.37231445 100.98266602 C-0.36959018 100.27606168 -0.36686591 99.56945735 -0.36405908 98.84144076 C-0.35037933 95.29656891 -0.33665912 91.75169723 -0.32291877 88.20682561 C-0.20900451 58.8045725 -0.10245365 29.40229526 0 0 Z " fill="#1B4A82" transform="translate(890,59)"/>
</svg>
